Coordinates
version=1
nRows=14
nColumns=24
inDegrees=yes

Units are S.I. units (second, meters, Newtons, ...)
Angles are in degrees.

endheader
time	pelvis_tilt	pelvis_list	pelvis_rotation	pelvis_tx	pelvis_ty	pelvis_tz	hip_flexion_r	hip_adduction_r	hip_rotation_r	knee_angle_r	ankle_angle_r	subtalar_angle_r	mtp_angle_r	hip_flexion_l	hip_adduction_l	hip_rotation_l	knee_angle_l	ankle_angle_l	subtalar_angle_l	mtp_angle_l	lumbar_extension	lumbar_bending	lumbar_rotation
      4.18500000	     16.27348470	      8.74080347	      9.30559440	     -0.19523020	      0.72446611	     -0.25316242	     13.76790104	    -14.10151968	    -14.33820137	    -16.79200787	     15.90147048	     20.25720365	      0.00000000	    -33.73562018	      1.56646624	      8.79798161	    -19.49562375	     35.55013444	     13.42196789	      0.00000000	    -35.42939962	     -3.77260269	    -12.59005714
      4.19000000	     16.33179548	      8.36365106	      9.40375949	     -0.18644315	      0.72406295	     -0.25203960	     13.83879667	    -13.57132433	    -13.93857778	    -17.89257628	     15.32652879	     19.24743890	      0.00000000	    -33.45746048	      1.08449774	      8.97620100	    -21.47950015	     34.81987234	     13.19966552	      0.00000000	    -35.14983665	     -3.44279706	    -12.34015927
      4.19500000	     16.35938582	      7.95275831	      9.44459987	     -0.17766612	      0.72373784	     -0.25086037	     13.97510259	    -12.96847954	    -13.33251815	    -19.11883920	     14.77782287	     18.03073338	      0.00000000	    -33.06022833	      0.62853554	      9.05401639	    -23.59435789	     33.88370533	     12.97587963	      0.00000000	    -34.83618030	     -3.11055110	    -12.01631337
      4.20000000	     16.38515478	      7.49977630	      9.48911999	     -0.16891762	      0.72352893	     -0.24970338	     14.10888722	    -12.30004675	    -12.67460676	    -20.42836014	     14.31028963	     16.73291288	      0.00000000	    -32.56542674	      0.15662176	      9.09488364	    -25.84161346	     32.75226532	     12.68856578	      0.00000000	    -34.52140701	     -2.71909583	    -11.69110797
      4.20500000	     16.38765693	      7.02193266	      9.52264208	     -0.16018563	      0.72342569	     -0.24850889	     14.25502090	    -11.57297112	    -11.94058780	    -21.78196035	     13.96470101	     15.38042536	      0.00000000	    -31.95993756	     -0.31783763	      9.07776183	    -28.18868711	     31.37019767	     12.41442999	      0.00000000	    -34.18844222	     -2.31735313	    -11.33550568
      4.21000000	     16.39677074	      6.50522669	      9.57688722	     -0.15151455	      0.72344237	     -0.24734475	     14.36442571	    -10.78789336	    -11.25157724	    -23.14288586	     13.73066616	     14.07111778	      0.00000000	    -31.26199428	     -0.82217143	      9.02782234	    -30.64593135	     29.79051119	     12.03513770	      0.00000000	    -33.87131475	     -1.84857366	    -11.01222493
      4.21500000	     16.39352814	      5.95755165	      9.64719889	     -0.14290021	      0.72356911	     -0.24620428	     14.44399182	     -9.95301771	    -10.60351930	    -24.46725393	     13.62108571	     12.82498306	      0.00000000	    -30.45938992	     -1.35047514	      8.93880169	    -33.18226194	     27.99575261	     11.58059224	      0.00000000	    -33.55071446	     -1.33236869	    -10.69907485
      4.22000000	     16.38028743	      5.38518182	      9.74388881	     -0.13435765	      0.72380858	     -0.24510044	     14.47745291	     -9.08170072	    -10.03421089	    -25.71942987	     13.64049098	     11.67714598	      0.00000000	    -29.55573211	     -1.90278127	      8.83248687	    -35.77775237	     25.99818417	     11.02976992	      0.00000000	    -33.23204901	     -0.76970543	    -10.40998927
      4.22500000	     16.38303279	      4.77953568	      9.87554053	     -0.12589775	      0.72417578	     -0.24407604	     14.42810575	     -8.18224861	     -9.62677854	    -26.87441932	     13.78230915	     10.72962585	      0.00000000	    -28.58337128	     -2.49683249	      8.70003377	    -38.40617440	     23.84671020	     10.30054698	      0.00000000	    -32.94089430	     -0.13392617	    -10.16447784
      4.23000000	     16.30623874	      4.18744773	     10.02702866	     -0.11753960	      0.72460337	     -0.24305669	     14.38946491	     -7.27913439	     -9.20328985	    -27.88518915	     14.05770669	      9.75361158	      0.00000000	    -27.44485304	     -3.06137949	      8.62685310	    -41.05130064	     21.51883779	      9.60189215	      0.00000000	    -32.58755765	      0.47949656	     -9.90656426
      4.23500000	     16.24453870	      3.57807245	     10.21784799	     -0.10929013	      0.72515025	     -0.24214375	     14.25950959	     -6.37916057	     -8.96780966	    -28.76018756	     14.43766023	      8.99493599	      0.00000000	    -26.24931366	     -3.65093037	      8.55830614	    -43.67785139	     19.12965999	      8.71577136	      0.00000000	    -32.26456516	      1.15378283	     -9.70492956
      4.24000000	     16.15460900	      2.96911997	     10.43518483	     -0.10115969	      0.72577781	     -0.24130732	     14.08284745	     -5.49300415	     -8.83522886	    -29.47547182	     14.91524305	      8.37091799	      0.00000000	    -24.95634330	     -4.23026183	      8.52739132	    -46.26964277	     16.72914831	      7.73236255	      0.00000000	    -31.92887779	      1.84833603	     -9.53089072
      4.24500000	     16.04455842	      2.37138813	     10.67867627	     -0.09315654	      0.72648910	     -0.24056066	     13.85428617	     -4.63839976	     -8.82056565	    -30.03677399	     15.46864215	      7.86591830	      0.00000000	    -23.58529623	     -4.78531651	      8.54825177	    -48.80119070	     14.38079126	      6.66944546	      0.00000000	    -31.58976992	      2.55369667	     -9.38644833
      4.25000000	     15.91039519	      1.78905110	     10.93914967	     -0.08527857	      0.72727605	     -0.23990308	     13.57806382	     -3.82098274	     -8.90509953	    -30.43490851	     16.08624458	      7.48569474	      0.00000000	    -22.14017686	     -5.30288538	      8.62096763	    -51.25803065	     12.16038936	      5.56695396	      0.00000000	    -31.24287618	      3.25943171	     -9.25859585
